<svg xmlns="http://www.w3.org/2000/svg" width="1017.852" height="752.269" viewBox="0 0 1017.852 752.269">
  <g id="Group_11" data-name="Group 11" transform="translate(0.021 0)">
    <path id="Path_222" data-name="Path 222" d="M430.18,804.715q-46.6,0-93.07-1.449c-44.262-1.381-90.032-2.808-132.573-23.3-29.759-14.333-56.116-37.329-76.219-66.5a207.837,207.837,0,0,1-29.211-63.6,228.674,228.674,0,0,1-6.448-33.286A226.386,226.386,0,0,1,100.2,526.08a202.115,202.115,0,0,1,16.974-40.4c31.023-55.793,87.608-93.246,155.245-102.754a9.019,9.019,0,0,1,1.685-.031c.3.014.607.029.917.018l.4-.11a21.855,21.855,0,0,1,3.133-.7c104.314-13.487,214.59,13.8,318.9,78.914,80.65,50.351,187.534,77.464,326.76,82.889l1.977.09c38.757,1.934,76.247,15.811,108.421,40.133a203.691,203.691,0,0,1,68.953,92.624c1.642,4.461,3.147,9.1,4.473,13.8,2.513,8.883-.4,17.858-7.992,24.69v.009l-.347.31c-.834.721-1.713,1.412-2.611,2.056l-1.056.756c-8.9,6.365-15.925,11.394-24.335,15.3a82.144,82.144,0,0,1-17.754,5.821c-33.928,7.184-68.382,13.844-102.405,19.8-66.076,11.57-133.892,21.115-201.566,28.368A3003.518,3003.518,0,0,1,430.18,804.716ZM273.315,384.87a4.649,4.649,0,0,0-.621.037c-67,9.419-123.054,46.5-153.77,101.745a200.085,200.085,0,0,0-16.806,40,224.378,224.378,0,0,0-7.475,89.687,226.668,226.668,0,0,0,6.392,32.994,205.838,205.838,0,0,0,28.928,63c19.907,28.889,45.994,51.654,75.441,65.836,42.159,20.308,87.713,21.729,131.767,23.1a3001.527,3001.527,0,0,0,412.582-15.595c67.63-7.249,135.4-16.787,201.435-28.35,34-5.948,68.431-12.6,102.335-19.783a80.093,80.093,0,0,0,17.326-5.679c8.241-3.826,15.2-8.807,24.014-15.111l1.056-.755c.772-.554,1.53-1.146,2.255-1.761l.208-.189c7.242-6.339,10.058-14.7,7.726-22.944h0c-1.312-4.646-2.8-9.24-4.426-13.655C1074.4,602.7,1003.84,549.872,926.091,545.995l-1.966-.09c-63.6-2.479-119.249-9.344-170.128-20.99-60.739-13.9-113.765-34.83-157.605-62.2-103.909-64.862-213.724-92.049-317.583-78.626a20.03,20.03,0,0,0-2.854.643l-.717.174c-.413.022-.818.005-1.223-.013C273.775,384.881,273.542,384.87,273.315,384.87Z" transform="translate(-91.085 -73.866)" fill="#f0f0f0"/>
    <path id="Path_223" data-name="Path 223" d="M1099.041,714.8v.01c-.81.7-1.66,1.37-2.54,2-14.68,10.51-24.71,17.88-42.77,21.71q-51,10.8-102.37,19.79-100.215,17.55-201.5,28.36a2993.978,2993.978,0,0,1-412.72,15.6c-45.88-1.43-90.13-2.95-132.17-23.2-30.73-14.8-56.55-38.19-75.83-66.17-19.55-28.37-31.44-61.94-35.49-96.44a99.085,99.085,0,0,1,29.97-7.8c35.88-3.42,71.19,9.72,103.82,25.01s64.69,33.14,100.03,40.19c52.08,10.39,105.84-3.74,155.77-21.83s99.08-40.43,151.74-47.26c70.63-9.17,141.5,10.24,210.08,29.46q109.575,30.705,219.16,61.42c10.44,2.92,21.27,6.05,29.41,13.21a36.167,36.167,0,0,1,5.41,5.94Z" transform="translate(-91.085 -73.866)" fill="#e6e6e6"/>
    <path id="Path_224" data-name="Path 224" d="M1099.041,714.8v.01c-.81.7-1.66,1.37-2.54,2-9.2,6.58-16.57,11.94-25.23,15.96q-44.655,4.395-89.43,7.61-115.245,8.265-230.94,8.79c-156.47.8-320.98,5.7-457.98-70.3-45.585-25.288-111.62,26.57-156.78-1.16a208.57,208.57,0,0,1-36.07-28.11,227.106,227.106,0,0,1-6.42-33.14,224.722,224.722,0,0,1,7.51-90.09,200.411,200.411,0,0,1,16.89-40.2c20.98,7.53,41.1,18.37,60.25,29.85,35.12,21.03,69.27,44.91,108.38,56.95,57.65,17.75,120.02,7.99,178.52-6.69s116.61-34.24,176.9-35.89c80.86-2.21,158.69,27.9,233.96,57.53q113.265,44.595,226.56,89.18,2.49,6.765,4.45,13.73C1109.741,700.266,1105.871,708.816,1099.041,714.8Z" transform="translate(-91.085 -73.866)" fill="#f2f2f2"/>
    <path id="Path_225" data-name="Path 225" d="M362.808,330.892c-11.373-7.667-10.26-24.441,1.767-31.035q.367-.2.72-.416l1.808-8.66c3.548,3.685,10.524,2.99,13.275-1.323a225.444,225.444,0,0,0-37.412-56.065,20.2,20.2,0,0,1-.29-26.8q.087-.1.173-.2A95.658,95.658,0,0,0,367,194.189c-25.49-40.954-74.1-73.489-85.649-120.323C246.6,111.19,242.7,124.336,207.939,161.66c0,0-32.911,29.7-40.014,45.657,1.745,1.833,17.371,6.233,17.972,9.838,11.917.955,32.562-12.106,32.562-12.106S173.4,253.089,159.716,282.68c-1.232,2.665-2.4,5.707-1.37,8.456.824,2.194,3.78,3.459,5.684,2.587a24.374,24.374,0,0,0-5.377,7.7,20.936,20.936,0,0,0,25.828-2.6L178.765,309.5l0,.008a15.567,15.567,0,0,1,5.771,26.19c-11.825,11-22.63,22.558-26.59,30.171-3.725,7.162,34.519,15.8,43.121,15.441s16.642-4.134,24.412-7.843a18.06,18.06,0,0,0,1.948,10.276,32.862,32.862,0,0,0,25.169-4.069c-.343,7.085,8.594,11,14.8,8.991-3.1,48.99-.832,117.783,2.144,189.2h7.381V391.492a22.259,22.259,0,0,0,6.234,2.072c15.1,2.681,33.326,4.311,43.153-7.466,11.31,11.4,32.037,11.188,43.282-.177-1.107,1.961.587,5.26,3.093,5.78,2.953.613,5.826-1.142,8.333-2.818l34.049-22.763Z" transform="translate(-91.085 -73.866)" fill="#e6e6e6"/>
    <circle id="Ellipse_21" data-name="Ellipse 21" cx="35.64" cy="35.64" r="35.64" transform="translate(576.783 162.948)" fill="#f2f2f2"/>
    <path id="Path_226" data-name="Path 226" d="M783.278,255.579c-2.061-6.9-7.885-11.412-14.922-12.4-.077-.011-.151,0-.228,0a2.221,2.221,0,0,0-.3-.07,44.461,44.461,0,0,0-28.616,6.229c-8.25,5.15-17.861,7.479-27.578,7.858l-.172.008a17.61,17.61,0,0,0-15.751,12.7,2.066,2.066,0,0,0,.92,2.261,9.031,9.031,0,0,0,3.724,1.89q4.44.941,8.911,1.723,8.725,1.527,17.542,2.469a260.84,260.84,0,0,0,35.93,1.358c3.995-.124,7.847-.257,11.507-2.02a17.121,17.121,0,0,0,6.6-5.76,19.423,19.423,0,0,0,2.437-16.238Z" transform="translate(-91.085 -73.866)" fill="#e6e6e6"/>
    <path id="Path_227" data-name="Path 227" d="M709.2,303.1c-2.062-6.9-7.885-11.412-14.922-12.4-.078-.011-.151,0-.228,0a2.22,2.22,0,0,0-.3-.07,44.462,44.462,0,0,0-28.616,6.229c-8.249,5.15-17.86,7.48-27.577,7.858l-.173.008a17.61,17.61,0,0,0-15.751,12.7,2.066,2.066,0,0,0,.92,2.261,9.031,9.031,0,0,0,3.723,1.89q4.44.941,8.911,1.723,8.725,1.527,17.542,2.469a260.855,260.855,0,0,0,35.93,1.358c3.994-.124,7.847-.257,11.507-2.02a17.124,17.124,0,0,0,6.6-5.76A19.424,19.424,0,0,0,709.2,303.1Z" transform="translate(-91.085 -73.866)" fill="#e6e6e6"/>
    <path id="Path_228" data-name="Path 228" d="M1010.808,451.892c-11.373-7.667-10.26-24.441,1.767-31.035q.367-.2.72-.416l1.808-8.66c3.548,3.685,10.524,2.99,13.275-1.323a225.444,225.444,0,0,0-37.412-56.065,20.2,20.2,0,0,1-.29-26.8q.087-.1.173-.2a95.658,95.658,0,0,0,24.154-12.2c-25.49-40.954-74.1-73.489-85.649-120.323C894.6,232.19,890.7,245.336,855.939,282.66c0,0-32.911,29.7-40.014,45.657,1.745,1.833,17.371,6.233,17.972,9.838,11.917.955,32.562-12.106,32.562-12.106S821.4,374.089,807.716,403.68c-1.232,2.665-2.4,5.707-1.37,8.456.824,2.194,3.78,3.459,5.684,2.587a24.372,24.372,0,0,0-5.377,7.7,20.937,20.937,0,0,0,25.828-2.6l-5.717,10.68,0,.008a15.566,15.566,0,0,1,5.771,26.19c-11.825,11-22.63,22.558-26.59,30.171-3.725,7.162,34.519,15.8,43.121,15.441s16.642-4.134,24.412-7.843a18.06,18.06,0,0,0,1.948,10.276,32.862,32.862,0,0,0,25.169-4.069c-.343,7.085,8.594,11,14.8,8.991-3.1,48.99-.832,117.783,2.144,189.2h7.381V512.492a22.257,22.257,0,0,0,6.234,2.072c15.1,2.681,33.326,4.311,43.153-7.466,11.31,11.4,32.037,11.188,43.282-.177-1.107,1.961.587,5.26,3.093,5.78,2.953.613,5.826-1.142,8.333-2.818l34.049-22.763Z" transform="translate(-91.085 -73.866)" fill="#e6e6e6"/>
    <path id="Path_229" data-name="Path 229" d="M154.055,641.883a3.613,3.613,0,0,0,2.619-6.263l-.248-.984.1-.236a9.7,9.7,0,0,1,17.9.067c2.927,7.05,6.654,14.113,7.572,21.568a28.705,28.705,0,0,1-.5,9.872,115.086,115.086,0,0,0,10.469-47.8,111.077,111.077,0,0,0-.689-12.392q-.571-5.06-1.584-10.047A116.419,116.419,0,0,0,166.6,546.327a30.982,30.982,0,0,1-12.886-13.369,23.634,23.634,0,0,1-2.149-6.458c.627.082,1.265.134,1.892.175l.6.031.074,0a3.58,3.58,0,0,0,2.94-5.832l-.813-1c-.411-.514-.833-1.018-1.244-1.532a1.776,1.776,0,0,1-.134-.154c-.473-.586-.946-1.162-1.419-1.748a10.351,10.351,0,0,1,3.394-3.28c4.741-2.777,11.281-.854,14.706,3.435s4.083,10.3,2.89,15.662a41.485,41.485,0,0,1-5.738,12.793c.257.329.525.648.782.977A117.171,117.171,0,0,1,181.72,565.4a48.709,48.709,0,0,1,2.908-22.624c2.783-6.715,8-12.37,12.595-18.175,5.519-6.973,16.835-3.93,17.807,4.909q.014.128.028.257-1.024.578-2,1.226a4.9,4.9,0,0,0,1.976,8.919l.1.015a48.764,48.764,0,0,1-1.285,7.291,50.21,50.21,0,0,1-25,31.469c-.4.206-.792.411-1.193.607a116.533,116.533,0,0,1,4.4,15.888,117.6,117.6,0,0,1,2.036,14.408,113.433,113.433,0,0,1-.082,18.315l.031-.216a29.974,29.974,0,0,1,10.232-17.308c7.874-6.469,19-8.851,27.494-14.05a5.625,5.625,0,0,1,8.616,5.473q-.017.114-.035.227a32.912,32.912,0,0,0-3.692,1.779q-1.024.578-2,1.226a4.9,4.9,0,0,0,1.976,8.919l.1.015.206.031a48.808,48.808,0,0,1-8.978,14.058,50.254,50.254,0,0,1-36.446,15.991h-.01a119.563,119.563,0,0,1-8.032,23.447H154.774c-.1-.319-.2-.648-.288-.967a32.6,32.6,0,0,0,7.939-.473c-2.129-2.612-4.257-5.245-6.386-7.857a1.785,1.785,0,0,1-.134-.154c-1.08-1.337-2.17-2.663-3.25-4v0a47.751,47.751,0,0,1,1.4-12.164Z" transform="translate(-91.085 -73.866)" fill="#e6e6e6"/>
    <path id="Path_230" data-name="Path 230" d="M1009.055,669.883a3.613,3.613,0,0,0,2.619-6.263l-.248-.984.1-.236a9.7,9.7,0,0,1,17.9.067c2.927,7.05,6.654,14.113,7.572,21.568a28.706,28.706,0,0,1-.5,9.872,115.086,115.086,0,0,0,10.469-47.8,111.074,111.074,0,0,0-.689-12.392q-.571-5.06-1.584-10.047a116.421,116.421,0,0,0-23.087-49.341,30.982,30.982,0,0,1-12.885-13.369,23.634,23.634,0,0,1-2.149-6.458c.627.082,1.265.134,1.892.175l.6.031.074,0a3.58,3.58,0,0,0,2.94-5.832l-.813-1c-.411-.514-.833-1.018-1.244-1.532a1.786,1.786,0,0,1-.134-.154c-.473-.586-.946-1.162-1.419-1.748a10.352,10.352,0,0,1,3.394-3.28c4.741-2.777,11.281-.854,14.706,3.435s4.083,10.3,2.89,15.662a41.485,41.485,0,0,1-5.738,12.793c.257.329.525.648.782.977a117.166,117.166,0,0,1,12.23,19.375,48.712,48.712,0,0,1,2.908-22.624c2.783-6.715,8-12.37,12.595-18.175,5.519-6.973,16.835-3.93,17.807,4.909q.014.128.028.257-1.024.578-2,1.226a4.9,4.9,0,0,0,1.976,8.919l.1.015a48.768,48.768,0,0,1-1.285,7.291,50.21,50.21,0,0,1-25,31.468c-.4.206-.792.411-1.193.607a119.591,119.591,0,0,1,6.438,30.3,113.442,113.442,0,0,1-.082,18.315l.031-.216a29.975,29.975,0,0,1,10.232-17.308c7.874-6.469,19-8.851,27.495-14.05a5.625,5.625,0,0,1,8.616,5.473q-.017.114-.035.227a32.928,32.928,0,0,0-3.692,1.779q-1.024.578-2,1.226a4.9,4.9,0,0,0,1.976,8.919l.1.015.206.031a48.81,48.81,0,0,1-8.978,14.058,50.254,50.254,0,0,1-36.446,15.991h-.01a119.553,119.553,0,0,1-8.032,23.447h-28.692c-.1-.319-.2-.648-.288-.967a32.6,32.6,0,0,0,7.939-.473c-2.129-2.612-4.257-5.245-6.386-7.857a1.793,1.793,0,0,1-.134-.154c-1.08-1.337-2.17-2.664-3.25-4v0a47.746,47.746,0,0,1,1.4-12.164Z" transform="translate(-91.085 -73.866)" fill="#e6e6e6"/>
    <path id="Path_231" data-name="Path 231" d="M668.055,586.883a3.613,3.613,0,0,0,2.619-6.263l-.248-.984.1-.236a9.7,9.7,0,0,1,17.9.067c2.927,7.05,6.655,14.113,7.572,21.568a28.705,28.705,0,0,1-.5,9.872,115.086,115.086,0,0,0,10.469-47.8,111.073,111.073,0,0,0-.689-12.392q-.571-5.06-1.584-10.047A116.42,116.42,0,0,0,680.6,491.327a30.982,30.982,0,0,1-12.886-13.369,23.632,23.632,0,0,1-2.149-6.458c.627.082,1.265.134,1.892.175l.6.031.074,0a3.58,3.58,0,0,0,2.94-5.832l-.813-1c-.411-.514-.833-1.018-1.244-1.532a1.777,1.777,0,0,1-.134-.154c-.473-.586-.946-1.162-1.419-1.748a10.353,10.353,0,0,1,3.394-3.28c4.741-2.777,11.281-.854,14.706,3.435s4.083,10.3,2.89,15.662a41.486,41.486,0,0,1-5.738,12.793c.257.329.524.648.782.977A117.176,117.176,0,0,1,695.72,510.4a48.709,48.709,0,0,1,2.908-22.624c2.783-6.715,8-12.37,12.595-18.175,5.519-6.973,16.835-3.93,17.807,4.909q.014.128.028.257-1.024.577-2,1.226a4.9,4.9,0,0,0,1.976,8.919l.1.015a48.759,48.759,0,0,1-1.285,7.291,50.21,50.21,0,0,1-25,31.468c-.4.206-.792.411-1.193.607a119.6,119.6,0,0,1,6.438,30.3,113.442,113.442,0,0,1-.082,18.315l.031-.216a29.975,29.975,0,0,1,10.232-17.308c7.874-6.469,19-8.851,27.494-14.05a5.625,5.625,0,0,1,8.616,5.473q-.017.114-.035.227a32.912,32.912,0,0,0-3.692,1.779q-1.024.578-2,1.226a4.9,4.9,0,0,0,1.976,8.919l.1.015.206.031a48.807,48.807,0,0,1-8.978,14.058,50.254,50.254,0,0,1-36.446,15.991h-.01a119.561,119.561,0,0,1-8.032,23.447H668.774c-.1-.319-.2-.648-.288-.967a32.6,32.6,0,0,0,7.939-.473c-2.129-2.612-4.258-5.245-6.386-7.857a1.784,1.784,0,0,1-.134-.154c-1.08-1.337-2.17-2.663-3.25-4v0a47.752,47.752,0,0,1,1.4-12.164Z" transform="translate(-91.085 -73.866)" fill="#e6e6e6"/>
    <path id="Path_232" data-name="Path 232" d="M394.662,731.045l12.006-3.57-7.942-49.08-17.721,5.269Z" fill="#ffb6b6"/>
    <path id="Path_233" data-name="Path 233" d="M412.112,785.538c.731.637,1.464,1.265,2.2,1.9,1.473,1.259,2.965,2.5,4.46,3.732.751.615,1.511,1.231,2.264,1.838l0,.024.048.016.015.011,1.213.512,2.57-4.5,1.186-2.073,1.675-2.937,3.069-5.371L446.973,750.4l-17.024-7.176-1.094,2.608h-.008l-.541,1.292L418.14,771.249l-2.075,4.932-.066.149-1.248,2.945-1.077,2.552-1.2,2.852Z" transform="translate(-91.085 -73.866)" fill="#ffb6b6"/>
    <path id="Path_234" data-name="Path 234" d="M323.162,663.139c.837,1.982,1.7,3.959,2.575,5.921q2.435,5.478,5.066,10.837c0,.008.007.01.014.019a23.435,23.435,0,0,0,3.843,3.861c.058.06.126.1.185.155a16.218,16.218,0,0,0,3.424,2.047l1.331.564c1.594.656,3.18,1.252,4.765,1.805q4.231,1.464,8.448,2.481c.226.061.453.114.68.166,11.6,2.719,23.235,3.142,35.515,2.759,6.063-.183,12.284-.567,18.726-.967,2.106-.137,4.219-.265,6.356-.388.161-.008.331-.023.5-.03,3.054-.18,6.156-.344,9.33-.489,4-.182,8.11-.321,12.374-.393l-1.221,5.8a44.543,44.543,0,0,1-4.852,12.7c-2.591,4.9-4.643,8.778-3.035,17.781l.772,4.358a14.287,14.287,0,0,0-.527,12.716l.218.48-16.662,28.211-1.08,1.829,6.091.965,7.492,1.2,12.7,2.011,24.145-33.859,1.155-1.615.014-.09,9.3-70.944c.074-.627.125-1.266.142-1.9a21.746,21.746,0,0,0-5.883-15.756,20.942,20.942,0,0,0-14.737-6.654l-6.4-.182-13.076-.374-9.212-.257-.184,0-27.165-.773-.677-8.091-.332-.187-10.556-5.882-36.511-20.347-.093-.048-2.4-1.338-.381.444c-.114.133-.227.267-.332.4a76.925,76.925,0,0,0-8.376,13.246A225.956,225.956,0,0,0,324.3,648.872q-.2.524-.353.953l-.039.086c-.047.135-.077.223-.089.246C322.332,653.738,322.235,658.379,323.162,663.139Z" transform="translate(-91.085 -73.866)" fill="#442e26"/>
    <path id="Path_235" data-name="Path 235" d="M325.65,636.846c.206-.505.446-1.013.692-1.5a113.559,113.559,0,0,1,6.362-10.775c2.61-3.957,5.653-8.156,9.2-12.661q2.573-3.273,5.5-6.786,1.464-1.76,3.029-3.579a2.1,2.1,0,0,1,.135-.163l.3-.356L388.4,612.228l-.018,5.14,2.723,7.283-.185.214c.008,0,.01-.007,0,0v-1l1,1,9.678,11.958.067,0,21.627.61,22.288.631,11.972.341a20.929,20.929,0,0,1,14.737,6.654,21.756,21.756,0,0,1,5.883,15.756c-.017.586-.061,1.184-.129,1.77l6.914,27.979a171.316,171.316,0,0,1,4.714,51.2L493.678,769l-1.173-.077L475.052,767.8l-4.609-.293-7.689-16.185c-.876-1.845-1.687-3.73-2.417-5.644a78.909,78.909,0,0,1-3.011-9.587l-13.48-54.911q-2.577.033-5.1.033-11.667.043-22.317-.451c-23.086-1.06-42.76-3.974-59.906-8.892q-7.224-2.064-13.866-4.617-2.437-.928-4.8-1.928c-.371-.151-.734-.3-1.1-.459A21.182,21.182,0,0,1,324.3,648.876a21.613,21.613,0,0,1,1.351-12.031Z" transform="translate(-91.085 -73.866)" fill="#442e26"/>
    <path id="Path_236" data-name="Path 236" d="M483.388,796.728l12.993-3.875,2.038-.61,1.849,7.907,20.382,7.993a5.073,5.073,0,0,1-.69,9.664l-21.968,5.151-5.617-6.932.354,8.166-8.274,1.942-4.224-28.461Z" transform="translate(-91.085 -73.866)" fill="#2f2e41"/>
    <path id="Path_237" data-name="Path 237" d="M319.9,699.669l-1.08,1.829.771.122Z" fill="#2f2e41"/>
    <path id="Path_238" data-name="Path 238" d="M414.816,776.568l11.959,6.388,1.877,1-4.25,6.919,8.859,20.021a5.073,5.073,0,0,1-7.291,6.382l-19.235-11.8.886-8.878-5.494,6.051-7.246-4.442,17.024-23.2Z" transform="translate(-91.085 -73.866)" fill="#2f2e41"/>
    <path id="Path_239" data-name="Path 239" d="M501.235,412.4a9.1,9.1,0,0,1-9.882,9.849l-13.3,29.473-8.981-14.2,14.007-25.81a9.148,9.148,0,0,1,18.156.69Z" transform="translate(-91.085 -73.866)" fill="#ffb6b6"/>
    <path id="Path_240" data-name="Path 240" d="M467.4,500.079l-60.939,46.627a22.965,22.965,0,0,1-32.159-4.279h0a22.941,22.941,0,0,1,7.84-34.4L442.9,477.207l27.178-52.948,18.249,5.423Z" transform="translate(-91.085 -73.866)" fill="#b98853"/>
    <path id="Path_241" data-name="Path 241" d="M337.618,555.471l-1.236,45.244c-17,28.724-18.936,42.673-14.23,50.109l69.91-25.538,1.178-2.813,3.651-20.216,6.619-20.859c1.165-2.179,16.987-15.57,2.156-40.97l-29.838-40.2-23.908-1.368c-3.941,10.116,3.168,15.636-3.933,17.968C331.93,531.551,334.289,533.947,337.618,555.471Z" transform="translate(-91.085 -73.866)" fill="#b98853"/>
    <path id="Path_242" data-name="Path 242" d="M290.072,682.49a9.1,9.1,0,0,1,6.125-12.536l2.949-32.2,13.125,10.491-4.813,28.969a9.148,9.148,0,0,1-17.386,5.276Z" transform="translate(-91.085 -73.866)" fill="#ffb6b6"/>
    <path id="Path_243" data-name="Path 243" d="M293.424,588.572,335.8,524.6a22.965,22.965,0,0,1,31.794-6.456h0a22.941,22.941,0,0,1,3.821,35.072l-47.36,48.969-8.4,58.92-19.019.832Z" transform="translate(-91.085 -73.866)" fill="#b98853"/>
    <path id="Path_244" data-name="Path 244" d="M383.234,443.972c8.453,16.661,2.931,35.961-12.755,46.11-16.963,10.974-38.986,8.571-46.11-12.755-7.933-23.749-1.416-33.938,12.755-46.11C353.731,416.953,374.1,425.97,383.234,443.972Z" transform="translate(-91.085 -73.866)" fill="#2f2e41"/>
    <path id="Path_245" data-name="Path 245" d="M341.622,481.089A26.764,26.764,0,1,0,384.21,448.66l-.232-.3a26.762,26.762,0,1,0-42.351,32.73Z" transform="translate(-91.085 -73.866)" fill="#ffb6b6"/>
    <path id="Path_246" data-name="Path 246" d="M391.426,441.275a36.57,36.57,0,0,1-15.437,8.747,15.992,15.992,0,0,0-4.068-3.372,17.108,17.108,0,0,1,1.493,4.831c-2.581,5.355-13.12,9.2-23.193,13.142l-13.342-23.546,17.659-10.006C368.728,421.26,385.433,425.447,391.426,441.275Z" transform="translate(-91.085 -73.866)" fill="#2f2e41"/>
    <path id="Path_247" data-name="Path 247" d="M326.815,431.247c-2.4-1.11-5.517-.425-7.776,1.136a17.331,17.331,0,0,0-5.076,6.174,44.268,44.268,0,0,0-4.6,12.544c-.762,3.8-.633,8.389,2.775,10.371,2.843,1.654,6.909.612,9.522-1.595s4.085-5.309,5.36-8.338,2.481-6.169,4.747-8.684l-2.354,1.1a20.575,20.575,0,0,0,1.025-7.008,6.787,6.787,0,0,0-3.62-5.7Z" transform="translate(-91.085 -73.866)" fill="#2f2e41"/>
    <path id="Path_248" data-name="Path 248" d="M357.359,434.333l-18.946,10.735a22.2,22.2,0,0,0-8.371,30.262h0a34.461,34.461,0,0,0,44.064,14.461l-17.312-15.283,23.485,11.966,5.014-2.841C360.106,479.052,355.247,459.295,357.359,434.333Z" transform="translate(-91.085 -73.866)" fill="#2f2e41"/>
  </g>
</svg>
