<svg xmlns="http://www.w3.org/2000/svg" xmlns:xlink="http://www.w3.org/1999/xlink" width="500" height="500" viewBox="0 0 500 500">
  <defs>
    <clipPath id="clip-path">
      <rect id="Rectangle_20" data-name="Rectangle 20" width="500" height="500" transform="translate(0.44)" fill="#7e5333" stroke="rgba(255,255,255,0)" stroke-width="1"/>
    </clipPath>
  </defs>
  <g id="Group_5" data-name="Group 5" transform="translate(-0.44)" clip-path="url(#clip-path)">
    <path id="Path_172" data-name="Path 172" d="M1794.01,366.1H1812.8v12.528H1794.01Z" transform="translate(-1494.642 -305.084)" fill="#f1f1f1"/>
    <path id="Path_173" data-name="Path 173" d="M1290.39-62.352h108.991V15.321H1290.39Z" transform="translate(-1074.958 51.96)" fill="#7e5333"/>
    <path id="Path_174" data-name="Path 174" d="M275.628,1101.485a6.264,6.264,0,0,1,6.264-6.265h144.07a6.265,6.265,0,0,1,6.265,6.265v251.81a6.265,6.265,0,0,1-6.265,6.263H281.892a6.264,6.264,0,0,1-6.264-6.263Z" transform="translate(-229.323 -912.683)" fill="#b98853"/>
    <path id="Path_175" data-name="Path 175" d="M-1.237,2933.06H496.745a1.253,1.253,0,1,1,0,2.505H-1.237C-1.929,2935.565-1.929,2933.06-1.237,2933.06Z" transform="translate(2.442 -2444.216)" fill="#3e3d3d" fill-rule="evenodd"/>
    <path id="Path_176" data-name="Path 176" d="M846.9,676.792a25.056,25.056,0,0,1,25.056-25.056h142.818a25.055,25.055,0,0,1,25.055,25.056V927.348a25.055,25.055,0,0,1-25.055,25.057H871.955A25.056,25.056,0,0,1,846.9,927.348Z" transform="translate(-705.383 -543.113)" fill="#f1f1f1"/>
    <path id="Path_177" data-name="Path 177" d="M839.382,670.528A26.309,26.309,0,0,1,865.69,644.22h142.818a26.308,26.308,0,0,1,26.308,26.308V921.085a26.309,26.309,0,0,1-26.308,26.31H865.69a26.31,26.31,0,0,1-26.308-26.31Zm26.308-23.8a23.8,23.8,0,0,0-23.8,23.8V921.085a23.8,23.8,0,0,0,23.8,23.8h142.818a23.8,23.8,0,0,0,23.8-23.8V670.528a23.8,23.8,0,0,0-23.8-23.8Z" transform="translate(-699.118 -536.85)" fill="#3e3d3d" fill-rule="evenodd"/>
    <path id="Path_178" data-name="Path 178" d="M907.033,656.745a24.945,24.945,0,0,1,15.033-5.009h142.818a24.947,24.947,0,0,1,15.033,5.009V947.4a24.939,24.939,0,0,1-15.033,5.01H922.066a24.937,24.937,0,0,1-15.033-5.01Z" transform="translate(-755.494 -543.113)" fill="#fff" fill-rule="evenodd"/>
    <path id="Path_179" data-name="Path 179" d="M2288.855,1526.812a25.683,25.683,0,1,1-25.684-25.682A25.683,25.683,0,0,1,2288.855,1526.812Z" transform="translate(-1864.208 -1250.942)" fill="#b98853"/>
    <path id="Path_180" data-name="Path 180" d="M997.233,981.219a6.264,6.264,0,0,1,6.265-6.264h130.29a6.264,6.264,0,0,1,6.263,6.264v83.937a6.263,6.263,0,0,1-6.263,6.263H1003.5a6.263,6.263,0,0,1-6.265-6.263Z" transform="translate(-830.661 -812.463)" fill="#f1f1f1" opacity="0.5"/>
    <path id="Path_181" data-name="Path 181" d="M997.237,1704.08h36.33v22.55h-36.33Z" transform="translate(-830.664 -1420.067)" fill="#7e5333"/>
    <path id="Path_182" data-name="Path 182" d="M1305.42,1704.08h36.33v22.55h-36.33Z" transform="translate(-1087.483 -1420.067)" fill="#7e5333"/>
    <path id="Path_183" data-name="Path 183" d="M1613.6,1704.08h40.09v22.55H1613.6Z" transform="translate(-1344.3 -1420.067)" fill="#7e5333"/>
    <path id="Path_184" data-name="Path 184" d="M997.233,1922.06h36.331v22.55H997.233Z" transform="translate(-830.661 -1601.717)" fill="#7e5333"/>
    <path id="Path_185" data-name="Path 185" d="M1305.42,1922.06h36.33v22.55h-36.33Z" transform="translate(-1087.483 -1601.717)" fill="#7e5333"/>
    <path id="Path_186" data-name="Path 186" d="M1613.6,1922.06h40.09v22.55H1613.6Z" transform="translate(-1344.3 -1601.717)" fill="#7e5333"/>
    <path id="Path_187" data-name="Path 187" d="M997.233,2147.56h36.331v22.55H997.233Z" transform="translate(-830.661 -1789.633)" fill="#f1f1f1"/>
    <path id="Path_188" data-name="Path 188" d="M1305.42,2147.56h36.33v22.55h-36.33Z" transform="translate(-1087.483 -1789.633)" fill="#7e5333"/>
    <path id="Path_189" data-name="Path 189" d="M1613.6,2147.56h40.09v22.55H1613.6Z" transform="translate(-1344.3 -1789.633)" fill="#f1f1f1"/>
    <path id="Path_190" data-name="Path 190" d="M839.382,670.528A26.309,26.309,0,0,1,865.69,644.22h142.818a26.308,26.308,0,0,1,26.308,26.308V921.085a26.309,26.309,0,0,1-26.308,26.31H865.69a26.31,26.31,0,0,1-26.308-26.31Zm26.308-23.8a23.8,23.8,0,0,0-23.8,23.8V921.085a23.8,23.8,0,0,0,23.8,23.8h142.818a23.8,23.8,0,0,0,23.8-23.8V670.528a23.8,23.8,0,0,0-23.8-23.8Z" transform="translate(-699.118 -536.85)" fill="#442e26" fill-rule="evenodd"/>
    <path id="Path_191" data-name="Path 191" d="M1057.37,321h122.773v86.442H1057.37Z" transform="translate(-880.775 -267.5)" fill="#f1f1f1"/>
    <path id="Path_192" data-name="Path 192" d="M1180.143,252.1H1057.37v-6.89l.027-.031c-.018-.2-.027-.395-.027-.6a6.263,6.263,0,0,1,6.263-6.264h122.773l-6.263,6.89Z" transform="translate(-880.775 -198.598)" fill="#f1f1f1" fill-rule="evenodd"/>
    <path id="Path_193" data-name="Path 193" d="M1881.7,372.365a6.264,6.264,0,1,1-6.263-6.264A6.264,6.264,0,0,1,1881.7,372.365Z" transform="translate(-1557.275 -305.084)" fill="#7e5333"/>
    <path id="Path_194" data-name="Path 194" d="M1806.536,244.581a6.263,6.263,0,1,1-6.263-6.264A6.263,6.263,0,0,1,1806.536,244.581Z" transform="translate(-1494.642 -198.598)" fill="#f1f1f1"/>
    <path id="Path_195" data-name="Path 195" d="M1794.01,275.9h12.527v27.561H1794.01Z" transform="translate(-1494.642 -229.917)" fill="#f1f1f1"/>
    <path id="Path_196" data-name="Path 196" d="M471.063,1095.22h35.078v264.338H471.063Z" transform="translate(-392.186 -912.683)" fill="#7e5333"/>
    <path id="Path_197" data-name="Path 197" d="M1247.79,1052.625a30.067,30.067,0,1,0,30.068,30.067A30.067,30.067,0,0,0,1247.79,1052.625Zm-36.33,30.067a36.331,36.331,0,1,1,36.33,36.33A36.332,36.332,0,0,1,1211.46,1082.692Z" transform="translate(-1009.183 -871.967)" fill="#b98853" fill-rule="evenodd"/>
    <path id="Path_198" data-name="Path 198" d="M1343.793,1105.97l-48.478,40.047-20.795-30.037,10.3-7.13,13.032,18.822,37.963-31.362Z" transform="translate(-1061.733 -913.592)" fill="#7e5333" fill-rule="evenodd"/>
    <path id="Path_199" data-name="Path 199" d="M452.271,647.351c0,14.184-11.779,25.682-26.309,25.682s-26.308-11.5-26.308-25.682,11.779-25.682,26.308-25.682S452.271,633.167,452.271,647.351Z" transform="translate(-332.678 -518.057)" fill="#f1f1f1"/>
    <path id="Path_200" data-name="Path 200" d="M475.1,716.366,446.114,735l-9.82-15.863,5.326-3.3,6.466,10.446,23.629-15.19Z" transform="translate(-363.212 -592.581)" fill="#f1f1f1" fill-rule="evenodd"/>
    <path id="Path_201" data-name="Path 201" d="M2025.772,1008.153a40.716,40.716,0,1,1-40.717-40.715A40.717,40.717,0,0,1,2025.772,1008.153Z" transform="translate(-1619.917 -806.198)" fill="#7e5333"/>
    <path id="Path_202" data-name="Path 202" d="M1302.912,1548.378l-41.968-33.825a27.47,27.47,0,0,1-6.235-7.79c-6.28-10.858-11.177-29.887-1.008-47.708a5.281,5.281,0,0,1,3.4-2.545,5.9,5.9,0,0,1,2.837.035,6.193,6.193,0,0,1,2.243,1.1c25.79,19.935,69.552,54.092,71.428,56.907a18.459,18.459,0,0,0,2.113,2.368h0c4.155,4.22,12.065,12.257,14.8,35.215.437,3.673.96,7.455,1.493,11.313,3.285,23.78,6.97,50.44-6.5,72-.417,5.637,5.012,27.06,30.067,67.65H1211.458c-1.252-2.923-4.76-9.27-8.768-11.275-.662-.33-1.67-.758-2.947-1.3-8.41-3.57-28.442-12.074-37.143-30.02h2.505a6.265,6.265,0,0,0,6.265-6.263v-31.32h107.74a23.8,23.8,0,0,0,23.8-23.8Z" transform="translate(-968.467 -1213.628)" fill="#ffb8b8" fill-rule="evenodd"/>
    <path id="Path_203" data-name="Path 203" d="M1057.37,787.038h122.773v8.77H1057.37Z" transform="translate(-880.775 -655.865)" fill="#f1f1f1"/>
    <path id="Path_204" data-name="Path 204" d="M1251.55,398.673h-85.19v-2.505h85.19Zm0,21.924h-85.19v-2.506h85.19Zm0,20.045h-85.19v-2.506h85.19Z" transform="translate(-971.6 -330.14)" fill="#442e26" fill-rule="evenodd"/>
    <path id="Path_207" data-name="Path 207" d="M42.022,15H35.391a16.469,16.469,0,0,0-3-6h9.632a3,3,0,1,0,0-6H9.016a3,3,0,1,0,0,6h10.5a10.5,10.5,0,0,1,9.452,6H9.016a3,3,0,1,0,0,6h21a10.5,10.5,0,0,1-10.352,9H9.016a2.1,2.1,0,0,0-.42,0A1.951,1.951,0,0,0,8,30a2.07,2.07,0,0,0-.57.3l-.36.21a2.25,2.25,0,0,0-.42.51,3.3,3.3,0,0,0-.27.42,1.83,1.83,0,0,0,0,.54A1.95,1.95,0,0,0,6.015,33a2.1,2.1,0,0,0,0,.42,1.95,1.95,0,0,0,0,.6,2.07,2.07,0,0,0,.3.57.44.44,0,0,0,.21.36l18,21a3,3,0,0,0,4.561-3.9L21.712,43.3,15.557,36h3.961a16.5,16.5,0,0,0,16.5-15h6a3,3,0,1,0,0-6Z" transform="translate(339.632 171.956)" fill="#fff"/>
    <path id="Path_208" data-name="Path 208" d="M42.022,15H35.391a16.469,16.469,0,0,0-3-6h9.632a3,3,0,1,0,0-6H9.016a3,3,0,1,0,0,6h10.5a10.5,10.5,0,0,1,9.452,6H9.016a3,3,0,1,0,0,6h21a10.5,10.5,0,0,1-10.352,9H9.016a2.1,2.1,0,0,0-.42,0A1.951,1.951,0,0,0,8,30a2.07,2.07,0,0,0-.57.3l-.36.21a2.25,2.25,0,0,0-.42.51,3.3,3.3,0,0,0-.27.42,1.83,1.83,0,0,0,0,.54A1.95,1.95,0,0,0,6.015,33a2.1,2.1,0,0,0,0,.42,1.95,1.95,0,0,0,0,.6,2.07,2.07,0,0,0,.3.57.44.44,0,0,0,.21.36l18,21a3,3,0,0,0,4.561-3.9L21.712,43.3,15.557,36h3.961a16.5,16.5,0,0,0,16.5-15h6a3,3,0,1,0,0-6Z" transform="translate(339.632 171.956)" fill="#fff"/>
    <path id="Path_209" data-name="Path 209" d="M30.012,11H25.591a10.979,10.979,0,0,0-2-4h6.421a2,2,0,1,0,0-4h-22a2,2,0,1,0,0,4h7a7,7,0,0,1,6.3,4H8.008a2,2,0,1,0,0,4h14a7,7,0,0,1-6.9,6h-7.1a1.4,1.4,0,0,0-.28,0,1.3,1.3,0,0,0-.4,0,1.38,1.38,0,0,0-.38.2l-.24.14a1.5,1.5,0,0,0-.28.34,2.2,2.2,0,0,0-.18.28,1.22,1.22,0,0,0,0,.36,1.3,1.3,0,0,0-.24.68,1.4,1.4,0,0,0,0,.28,1.3,1.3,0,0,0,0,.4,1.38,1.38,0,0,0,.2.38.294.294,0,0,0,.14.24l12,14a2,2,0,0,0,3.041-2.6l-4.918-5.833L12.369,25h2.64a11,11,0,0,0,11-10h4a2,2,0,1,0,0-4Z" transform="translate(379.962 254.87)" fill="#fff"/>
  </g>
</svg>
