\<svg xmlns="http://www.w3.org/2000/svg" width="459.94" height="429.619" viewBox="0 0 459.94 429.619">
  <g id="Layer_2" data-name="Layer 2" transform="translate(0 0)">
    <g id="Layer_1" data-name="Layer 1">
      <path id="Path_23" data-name="Path 23" d="M140.17,114l-.85,225.45-68.78-.22-.1,30.3A34.39,34.39,0,0,0,104.72,404l34.39.11,198.74.64a34.39,34.39,0,0,0,34.5-34.28l1.06-290.14-198.74-.64A34.39,34.39,0,0,0,140.17,114Z" fill="#b98853"/>
      <path id="Path_24" data-name="Path 24" d="M70.44,339.31h68.78v30.3a34.39,34.39,0,1,1-68.78,0Z" transform="matrix(1, 0.003, -0.003, 1, 1.2, -0.34)" fill="#7e5333"/>
      <ellipse id="Ellipse_1" data-name="Ellipse 1" cx="19.68" cy="34.1" rx="19.68" ry="34.1" transform="translate(48.42 335.89)" fill="none" stroke="#dbbc9a" stroke-linecap="round" stroke-linejoin="round" stroke-width="1"/>
      <path id="Path_27" data-name="Path 27" d="M68.1,404.09V352.95m0,20.03,7.97-9.11M68.1,383.86l11.49-13.13M68.1,395.07l11.86-13.56M68.1,373l-9.66-11.05m9.66,21.93L56.24,370.32M68.1,395.09,56.24,381.53" fill="none" stroke="#dbbc9a" stroke-linecap="round" stroke-linejoin="round" stroke-width="1"/>
      <ellipse id="Ellipse_4" data-name="Ellipse 4" cx="19.68" cy="34.1" rx="19.68" ry="34.1" transform="translate(73.26 315.21)" fill="none" stroke="#dbbc9a" stroke-miterlimit="10" stroke-width="1"/>
      <path id="Path_28" data-name="Path 28" d="M92.94,332.27v71.95m0-51.92,9.65-11.03m-9.65,21.91,11.86-13.56M92.94,374.39l11.86-13.56m-11.86-8.51-9.67-11.05m9.67,21.93L81.08,349.64m11.86,24.77L81.08,360.85" fill="none" stroke="#dbbc9a" stroke-linecap="round" stroke-linejoin="round" stroke-width="1"/>
      <ellipse id="Ellipse_5" data-name="Ellipse 5" cx="19.68" cy="34.1" rx="19.68" ry="34.1" transform="translate(18.14 323.71)" fill="none" stroke="#dbbc9a" stroke-linecap="round" stroke-linejoin="round" stroke-width="1"/>
      <path id="Path_29" data-name="Path 29" d="M37.82,340.77v63.45m0-43.42,9.65-11.03m-9.65,21.91,11.86-13.56M37.82,382.89l11.86-13.56m-11.86-8.51-9.66-11.05m9.66,21.93L25.96,358.14m11.86,24.78L25.96,369.35" fill="none" stroke="#dbbc9a" stroke-linecap="round" stroke-linejoin="round" stroke-width="1"/>
      <path id="Path_30" data-name="Path 30" d="M390.8,331.67h18.03V435.26H390.8Z" transform="translate(-151.81 332.36) rotate(-38.51)" fill="#7e5333"/>
      <path id="Path_31" data-name="Path 31" d="M389.19,384.59l.18.23,9.53,12c5.09-9.15,1.36-25.12.55-28.26l-11-13.77s8.02,20.13.74,29.8Z" fill="#442e26"/>
      <rect id="Rectangle_1" data-name="Rectangle 1" width="106.47" height="79.6" rx="3" transform="translate(95.82 221.2)" fill="none" stroke="#442e26" stroke-miterlimit="10" stroke-width="1"/>
      <rect id="Rectangle_2" data-name="Rectangle 2" width="96.93" height="69.41" rx="3" transform="translate(100.58 226.29)" fill="#7e5333"/>
      <rect id="Rectangle_3" data-name="Rectangle 3" width="29.18" height="59.12" rx="3" transform="translate(161.99 231.22)" fill="#c1e3f7"/>
      <rect id="Rectangle_4" data-name="Rectangle 4" width="47.35" height="20.24" rx="3" transform="translate(108.81 270.11)" fill="#dbbc9a"/>
      <rect id="Rectangle_5" data-name="Rectangle 5" width="47.35" height="7.29" rx="1" transform="translate(108.81 231.22)" fill="#dbbc9a"/>
      <rect id="Rectangle_6" data-name="Rectangle 6" width="18.79" height="18.79" rx="3.66" transform="translate(109.68 245.01)" fill="#dbbc9a"/>
      <rect id="Rectangle_7" data-name="Rectangle 7" width="18.79" height="18.79" rx="3.66" transform="translate(135.84 245.01)" fill="#dbbc9a"/>
      <rect id="Rectangle_8" data-name="Rectangle 8" width="106.47" height="79.6" rx="3" transform="translate(321.75 46.46)" fill="none" stroke="#442e26" stroke-miterlimit="10" stroke-width="1"/>
      <rect id="Rectangle_9" data-name="Rectangle 9" width="96.93" height="69.41" rx="3" transform="translate(326.52 51.56)" fill="#7e5333"/>
      <rect id="Rectangle_10" data-name="Rectangle 10" width="29.18" height="59.12" rx="3" transform="translate(387.93 56.49)" fill="#dbbc9a"/>
      <rect id="Rectangle_11" data-name="Rectangle 11" width="47.35" height="20.24" rx="3" transform="translate(334.75 95.37)" fill="#c1e3f7"/>
      <rect id="Rectangle_12" data-name="Rectangle 12" width="47.35" height="7.29" rx="1" transform="translate(334.75 56.49)" fill="#dbbc9a"/>
      <rect id="Rectangle_13" data-name="Rectangle 13" width="18.79" height="18.79" rx="3.66" transform="translate(335.62 70.27)" fill="#dbbc9a"/>
      <rect id="Rectangle_14" data-name="Rectangle 14" width="18.79" height="18.79" rx="3.66" transform="translate(361.77 70.27)" fill="#dbbc9a"/>
      <path id="Path_32" data-name="Path 32" d="M310.27,313.52,374.14,145l68.79.23.09-30.31a34.39,34.39,0,0,0-34.28-34.5l-34.39-.11-198.74-.64A34.39,34.39,0,0,0,141.11,114l-1.06,290.14Z" fill="#b98853"/>
      <path id="Path_33" data-name="Path 33" d="M374.25,80.44H443v30.3a34.39,34.39,0,0,1-68.78,0V80.44Z" transform="matrix(-1, -0.003, 0.003, -1, 816.91, 226.889)" fill="#7e5333"/>
      <path id="Path_34" data-name="Path 34" d="M358.55,331.61a52.234,52.234,0,0,1-5.08,3.56l9.25,11.63,9.69-7.72-9.25-11.62a54,54,0,0,1-4.61,4.15Z" fill="#442e26"/>
      <circle id="Ellipse_6" data-name="Ellipse 6" cx="61.88" cy="61.88" r="61.88" transform="translate(254.21 215.48)" fill="#489ee0"/>
      <rect id="Rectangle_15" data-name="Rectangle 15" width="76.85" height="60.71" rx="7" transform="translate(178.771 324.225) rotate(1.81)" fill="#fff"/>
      <rect id="Rectangle_16" data-name="Rectangle 16" width="76.85" height="60.71" rx="7" transform="translate(166.777 132.721) rotate(1.81)" fill="#fff"/>
      <path id="Path_35" data-name="Path 35" d="M244.85,264.34,160.3,261m84.29,27.08-84.31-2.03m91.08,23.15-75.79-.11m80.95-169.05,92.43,3.65m-92.79,20.35,91.89,3.64m-76.23,19.09,77.3,2.83" fill="none" stroke="#fff" stroke-linecap="round" stroke-linejoin="round" stroke-width="2"/>
      <path id="Path_36" data-name="Path 36" d="M443.22,174.11a78.731,78.731,0,0,1,1.21,7.89c.3,2.63.48,5.27.65,7.91s.22,5.29.2,7.94a76.208,76.208,0,0,1-.35,8,76.336,76.336,0,0,1-1.2-7.89c-.31-2.64-.49-5.28-.65-7.92s-.22-5.29-.21-7.94S443,176.77,443.22,174.11Z" fill="#442e26"/>
      <path id="Path_37" data-name="Path 37" d="M459.94,189.11a79.174,79.174,0,0,1-7.89,1.21c-2.64.3-5.28.48-7.92.64s-5.29.23-7.94.21a78.831,78.831,0,0,1-8-.35,78.734,78.734,0,0,1,7.89-1.21c2.63-.3,5.27-.48,7.91-.64s5.29-.22,8-.21S457.27,188.84,459.94,189.11ZM424.2,207.36a36.56,36.56,0,0,1,1.06,5.3c.24,1.77.42,3.54.51,5.32s.12,3.57.07,5.36a36.59,36.59,0,0,1-.49,5.38,36.6,36.6,0,0,1-1.07-5.3c-.24-1.77-.42-3.55-.51-5.33s-.11-3.56-.06-5.35a36.352,36.352,0,0,1,.49-5.38Z" fill="#442e26"/>
      <path id="Path_38" data-name="Path 38" d="M435.45,217.46a37.707,37.707,0,0,1-5.3,1.07c-1.77.24-3.54.41-5.32.51s-3.57.11-5.36.06a36.6,36.6,0,0,1-5.38-.49,36.557,36.557,0,0,1,5.3-1.06c1.77-.24,3.55-.42,5.33-.51s3.56-.12,5.35-.07a39.261,39.261,0,0,1,5.38.49ZM24.26,215c.55,2.63.91,5.26,1.2,7.89s.49,5.28.65,7.92.22,5.29.21,7.94a78.836,78.836,0,0,1-.36,8c-.55-2.62-.91-5.25-1.2-7.88s-.49-5.28-.65-7.92-.22-5.29-.2-7.94a76.2,76.2,0,0,1,.35-8.01Z" fill="#442e26"/>
      <path id="Path_39" data-name="Path 39" d="M41,230a78.694,78.694,0,0,1-7.89,1.2c-2.63.3-5.27.49-7.92.65s-5.29.23-7.94.21a79,79,0,0,1-8-.35,78.737,78.737,0,0,1,7.89-1.21c2.63-.3,5.27-.48,7.92-.64s5.29-.23,7.94-.21A79,79,0,0,1,41,230Zm2.12,17.42a36.559,36.559,0,0,1,1.06,5.3c.25,1.77.42,3.55.51,5.33s.12,3.56.07,5.35a36.349,36.349,0,0,1-.49,5.38,38,38,0,0,1-1.07-5.3c-.24-1.77-.41-3.55-.5-5.33s-.12-3.56-.07-5.35a36.47,36.47,0,0,1,.49-5.38Z" fill="#442e26"/>
      <path id="Path_40" data-name="Path 40" d="M54.37,257.53a37.53,37.53,0,0,1-5.29,1.06c-1.78.24-3.55.42-5.33.51s-3.56.12-5.35.07a36.352,36.352,0,0,1-5.38-.49,34.931,34.931,0,0,1,5.29-1.07c1.78-.24,3.55-.42,5.33-.51S47.2,257,49,257A36.347,36.347,0,0,1,54.37,257.53ZM247.12,0c.55,2.62.91,5.25,1.2,7.89s.49,5.27.65,7.92.22,5.29.21,7.94-.08,5.3-.35,8a78.741,78.741,0,0,1-1.21-7.89c-.3-2.63-.49-5.27-.65-7.92s-.22-5.29-.2-7.94a79,79,0,0,1,.35-8Z" fill="#442e26"/>
      <path id="Path_41" data-name="Path 41" d="M263.83,15c-2.62.55-5.25.91-7.89,1.2s-5.27.49-7.91.65-5.29.22-7.95.21a79,79,0,0,1-8-.36c2.62-.55,5.25-.91,7.89-1.2s5.28-.49,7.92-.65,5.29-.22,7.94-.2a76,76,0,0,1,8,.35ZM266,32.4a37.7,37.7,0,0,1,1.07,5.3c.24,1.77.41,3.54.51,5.32s.11,3.57.06,5.35a36.608,36.608,0,0,1-.49,5.39,36.56,36.56,0,0,1-1.06-5.3c-.25-1.77-.42-3.55-.51-5.33s-.12-3.56-.07-5.35A36.352,36.352,0,0,1,266,32.4Z" fill="#442e26"/>
      <path id="Path_42" data-name="Path 42" d="M277.24,42.5a38,38,0,0,1-5.3,1.07c-1.77.24-3.55.41-5.33.51s-3.56.11-5.35.06a36.35,36.35,0,0,1-5.38-.49,36.291,36.291,0,0,1,5.3-1.06c1.77-.25,3.54-.42,5.32-.51s3.57-.12,5.35-.07a36.609,36.609,0,0,1,5.39.49Z" fill="#442e26"/>
      <path id="Path_43" data-name="Path 43" d="M.5,404.22H390.32" fill="none" stroke="#545454" stroke-linecap="round" stroke-linejoin="round" stroke-width="1"/>
      <circle id="Ellipse_7" data-name="Ellipse 7" cx="72" cy="72" r="72" transform="translate(243.73 204.91)" fill="#7e5333"/>
      <circle id="Ellipse_8" data-name="Ellipse 8" cx="61.88" cy="61.88" r="61.88" transform="translate(254.21 215.48)" fill="rgba(185,136,83,0.75)"/>
      <path id="Path_44" data-name="Path 44" d="M254.67,269.75l57.46.8.16-12-54.9-.76a62.79,62.79,0,0,0-2.72,11.96Zm1.7,23.91,58.17.8.17-12-60.37-.84a62.132,62.132,0,0,0,2.03,12.04Zm7.51,16.92a59.646,59.646,0,0,0,4.11,5.71l45.58.64.4-12-53.63-.73a60.743,60.743,0,0,0,3.54,6.38Z" fill="#fff"/>
    </g>
  </g>
</svg>
